<?xml version="1.0" encoding="UTF-8"?>
<!DOCTYPE svg PUBLIC "-//W3C//DTD SVG 1.1//EN" "http://www.w3.org/Graphics/SVG/1.1/DTD/svg11.dtd">
<!-- Creator: CorelDRAW X8 -->
<svg xmlns="http://www.w3.org/2000/svg" xml:space="preserve" width="145.038mm" height="116.029mm" version="1.1" style="shape-rendering:geometricPrecision; text-rendering:geometricPrecision; image-rendering:optimizeQuality; fill-rule:evenodd; clip-rule:evenodd"
viewBox="0 0 15045 12036"
 xmlns:xlink="http://www.w3.org/1999/xlink">
 <defs>
  <style type="text/css">
   <![CDATA[
    .fil0 {fill:#05ABB9}
   ]]>
  </style>
 </defs>
 <g id="Capa_x0020_1">
  <metadata id="CorelCorpID_0Corel-Layer"/>
  <g id="_952561312">
   <g>
    <g>
     <path class="fil0" d="M14677 368c-246,-245 -541,-368 -886,-368l-12537 0c-345,0 -640,123 -886,368 -245,246 -368,541 -368,886l0 9528c0,345 123,640 368,886 246,245 541,368 886,368l12537 0c345,0 640,-123 886,-368 245,-246 368,-541 368,-886l0 -9528c0,-345 -123,-640 -368,-886zm-635 10414c0,68 -25,127 -74,177 -50,49 -109,74 -177,74l-12537 0c-68,0 -127,-25 -177,-74 -49,-50 -74,-109 -74,-177l0 -4764 13039 0 0 4764 0 0zm0 -7773l-13039 0 0 -1755c0,-68 25,-127 74,-177 50,-49 109,-74 177,-74l12537 0c68,0 127,25 177,74 49,50 74,109 74,177l0 1755 0 0z"/>
     <rect class="fil0" x="2006" y="9027" width="2006" height="1003"/>
     <rect class="fil0" x="5015" y="9027" width="3009" height="1003"/>
    </g>
   </g>
   <g>
   </g>
   <g>
   </g>
   <g>
   </g>
   <g>
   </g>
   <g>
   </g>
   <g>
   </g>
   <g>
   </g>
   <g>
   </g>
   <g>
   </g>
   <g>
   </g>
   <g>
   </g>
   <g>
   </g>
   <g>
   </g>
   <g>
   </g>
   <g>
   </g>
  </g>
 </g>
</svg>
