<?xml version="1.0" encoding="UTF-8"?>
<!DOCTYPE svg PUBLIC "-//W3C//DTD SVG 1.1//EN" "http://www.w3.org/Graphics/SVG/1.1/DTD/svg11.dtd">
<!-- Creator: CorelDRAW X8 -->
<svg xmlns="http://www.w3.org/2000/svg" xml:space="preserve" width="210mm" height="297mm" version="1.1" style="shape-rendering:geometricPrecision; text-rendering:geometricPrecision; image-rendering:optimizeQuality; fill-rule:evenodd; clip-rule:evenodd"
viewBox="0 0 21000 29700"
 xmlns:xlink="http://www.w3.org/1999/xlink">
 <defs>
  <style type="text/css">
   <![CDATA[
    .fil0 {fill:#05ABB9}
   ]]>
  </style>
 </defs>
 <g id="Capa_x0020_1">
  <metadata id="CorelCorpID_0Corel-Layer"/>
  <path class="fil0" d="M8656 15702c-445,-756 -701,-1637 -701,-2578l-1617 0c0,1220 326,2365 896,3351 -286,76 -586,117 -896,117 -1916,0 -3468,-1553 -3468,-3468 0,-1915 1552,-3468 3468,-3468 310,0 610,41 896,117 536,143 1022,412 1422,772 706,635 1149,1555 1149,2579l1618 0c0,-1525 -671,-2893 -1734,-3825 895,-785 2068,-1260 3351,-1260 2809,0 5086,2276 5086,5085 0,2808 -2277,5085 -5086,5085 -1283,0 -2456,-476 -3351,-1260 -407,-357 -756,-778 -1033,-1247zm4384 -9281c-1867,0 -3557,764 -4772,1997 -595,-245 -1247,-379 -1930,-379 -2809,0 -5086,2276 -5086,5085 0,2808 2277,5085 5086,5085 683,0 1335,-135 1930,-379 1215,1233 2905,1997 4772,1997 3702,0 6703,-3001 6703,-6703 0,-3702 -3001,-6703 -6703,-6703z"/>
 </g>
</svg>
