<?xml version="1.0" encoding="UTF-8"?>
<!DOCTYPE svg PUBLIC "-//W3C//DTD SVG 1.1//EN" "http://www.w3.org/Graphics/SVG/1.1/DTD/svg11.dtd">
<!-- Creator: CorelDRAW X8 -->
<svg xmlns="http://www.w3.org/2000/svg" xml:space="preserve" width="6.3011mm" height="6.3502mm" version="1.1" style="shape-rendering:geometricPrecision; text-rendering:geometricPrecision; image-rendering:optimizeQuality; fill-rule:evenodd; clip-rule:evenodd"
viewBox="0 0 1543 1555"
 xmlns:xlink="http://www.w3.org/1999/xlink">
 <defs>
  <style type="text/css">
   <![CDATA[
    .fil0 {fill:#05ABB9}
   ]]>
  </style>
 </defs>
 <g id="Capa_x0020_1">
  <metadata id="CorelCorpID_0Corel-Layer"/>
  <path class="fil0" d="M1497 1299l-322 -322c62,-99 98,-215 98,-340 0,-351 -285,-637 -636,-637 -351,0 -637,286 -637,637 0,351 286,636 637,636 118,0 230,-32 325,-89l325 325c139,139 349,-71 210,-210l0 0zm-1300 -662c0,-242 197,-440 440,-440 242,0 439,197 439,440 0,242 -197,439 -439,439 -243,0 -440,-197 -440,-439zm131 -115c128,-297 561,-263 642,49 -164,-193 -453,-213 -642,-49z"/>
 </g>
</svg>
