<?xml version="1.0" encoding="UTF-8"?>
<!DOCTYPE svg PUBLIC "-//W3C//DTD SVG 1.1//EN" "http://www.w3.org/Graphics/SVG/1.1/DTD/svg11.dtd">
<!-- Creator: CorelDRAW X8 -->
<svg xmlns="http://www.w3.org/2000/svg" xml:space="preserve" width="210mm" height="210mm" version="1.1" style="shape-rendering:geometricPrecision; text-rendering:geometricPrecision; image-rendering:optimizeQuality; fill-rule:evenodd; clip-rule:evenodd"
viewBox="0 0 21096 21096"
 xmlns:xlink="http://www.w3.org/1999/xlink"
 xmlns:serif="http://www.serif.com/">
 <defs>
  <style type="text/css">
   <![CDATA[
    .fil0 {fill:white}
   ]]>
  </style>
 </defs>
 <g id="Capa_x0020_1">
  <metadata id="CorelCorpID_0Corel-Layer"/>
  <g id="_772773040">
   <path class="fil0" d="M10548 0c5821,0 10548,4726 10548,10548 0,5821 -4727,10548 -10548,10548 -5822,0 -10548,-4727 -10548,-10548 0,-5822 4726,-10548 10548,-10548zm0 3955c-1791,0 -2015,8 -2718,40 -702,32 -1181,144 -1601,307 -433,168 -801,393 -1167,760 -367,366 -592,734 -761,1168 -162,419 -274,898 -306,1600 -32,703 -40,927 -40,2718 0,1790 8,2015 40,2718 32,702 144,1181 306,1600 169,434 394,801 761,1168 366,366 734,592 1167,760 420,163 899,274 1601,306 703,33 927,40 2718,40 1790,0 2015,-7 2718,-40 702,-32 1181,-143 1600,-306 434,-168 801,-394 1168,-760 366,-367 592,-734 760,-1168 163,-419 274,-899 306,-1600 33,-703 40,-928 40,-2718 0,-1791 -7,-2015 -40,-2718 -32,-702 -143,-1181 -306,-1600 -168,-434 -394,-802 -760,-1168 -367,-367 -734,-592 -1168,-760 -419,-163 -898,-275 -1600,-307 -703,-32 -928,-40 -2718,-40zm0 1188c1760,0 1969,7 2664,39 642,29 991,136 1224,227 308,119 527,262 758,493 230,230 373,450 493,758 90,232 198,581 227,1224 32,695 38,904 38,2664 0,1760 -6,1969 -38,2664 -29,642 -137,991 -227,1224 -120,308 -263,527 -493,758 -231,230 -451,373 -758,493 -233,90 -582,198 -1224,227 -695,32 -904,38 -2664,38 -1761,0 -1969,-6 -2664,-38 -643,-29 -992,-137 -1224,-227 -308,-120 -528,-263 -758,-493 -231,-231 -374,-451 -493,-758 -91,-233 -198,-582 -227,-1224 -32,-695 -39,-904 -39,-2664 0,-1760 7,-1969 39,-2664 29,-643 136,-992 227,-1224 119,-308 262,-528 493,-758 230,-231 450,-374 758,-493 232,-91 581,-198 1224,-227 695,-32 904,-39 2664,-39zm0 2020c-1870,0 -3385,1515 -3385,3385 0,1869 1515,3385 3385,3385 1869,0 3385,-1516 3385,-3385 0,-1870 -1516,-3385 -3385,-3385zm0 5582c-1214,0 -2198,-984 -2198,-2197 0,-1214 984,-2198 2198,-2198 1213,0 2197,984 2197,2198 0,1213 -984,2197 -2197,2197zm4310 -5716c0,437 -354,791 -791,791 -437,0 -791,-354 -791,-791 0,-437 354,-791 791,-791 437,0 791,354 791,791z"/>
  </g>
 </g>
</svg>
