<?xml version="1.0" encoding="UTF-8"?>
<!DOCTYPE svg PUBLIC "-//W3C//DTD SVG 1.1//EN" "http://www.w3.org/Graphics/SVG/1.1/DTD/svg11.dtd">
<!-- Creator: CorelDRAW X8 -->
<svg xmlns="http://www.w3.org/2000/svg" xml:space="preserve" width="210mm" height="210mm" version="1.1" style="shape-rendering:geometricPrecision; text-rendering:geometricPrecision; image-rendering:optimizeQuality; fill-rule:evenodd; clip-rule:evenodd"
viewBox="0 0 18867 18867"
 xmlns:xlink="http://www.w3.org/1999/xlink"
 xmlns:serif="http://www.serif.com/">
 <defs>
  <style type="text/css">
   <![CDATA[
    .fil0 {fill:white}
   ]]>
  </style>
 </defs>
 <g id="Capa_x0020_1">
  <metadata id="CorelCorpID_0Corel-Layer"/>
  <g id="_772774192">
   <path class="fil0" d="M9397 18867l9 0 -3 0 -6 0zm67 0l-3 0 8 0 -5 0zm-96 -1l10 0 -6 0 -4 0zm126 0l-5 0 9 0 -4 0zm-153 0l6 0 -5 0 -1 0 0 0zm184 0l-5 0 6 0 -1 0 0 0zm30 0l-2 0 8 0 -6 0zm-250 0l9 0 -3 0 -6 0zm281 -1l-5 1 10 -1 -5 0zm-310 0l10 1 -5 -1 -5 0zm340 0l-7 0 10 0 -3 0 0 0zm-368 0l9 0 -6 0 -3 0 0 0zm-34 -1l8 0 -2 0 -6 0 0 0zm432 0l-1 0 8 0 -7 0 0 0zm-463 -1l12 1 -5 0 -7 -1 0 0zm494 1l-5 0 11 -1 -6 1 0 0zm30 -1l-7 0 11 0 -4 0zm-552 0l12 0 -7 0 -5 0zm-26 -1l8 0 -8 0 -7 0 7 0 0 0zm608 0l-8 0 9 0 6 0 -7 0 0 0zm31 -1l-5 0 13 0 -8 0zm-677 0l12 0 -4 0 -8 0zm-28 -1l13 0 -7 0 -6 0 0 0zm735 0l-8 0 14 0 -6 0 0 0zm-762 -2l13 1 -10 0 -3 -1 0 0zm792 1l-10 0 13 -1 -3 1 0 0zm-830 -2l14 0 -3 0 -11 0 0 0zm860 0l-3 0 14 0 -11 0 0 0zm-887 -2l14 1 -7 0 -7 -1zm917 1l-7 0 15 -1 -8 1zm-944 -2l15 1 -11 -1 -4 0zm974 0l-10 1 15 -1 -5 0zm31 -1l-14 1 12 -1 14 -1 -12 1zm-1029 0l11 1 -13 -1 -12 -1 14 1zm1059 -2l-6 0 15 0 -9 0zm-1100 0l15 0 -6 0 -9 0zm-27 -2l15 1 -9 -1 -6 0zm1157 0l-10 1 15 -1 -5 0zm-1182 -2l13 1 -12 0 -13 -1 12 0 0 0zm1212 1l-13 0 14 -1 11 0 -12 1 0 0zm30 -2l-5 0 15 -1 -10 1zm-1281 -1l14 1 -4 0 -10 -1zm-26 -2l14 1 -8 0 -6 -1 0 0zm1337 1l-8 0 14 -1 -6 1 0 0zm-1364 -3l13 1 -10 -1 -3 0 0 0zm1394 0l-10 1 13 -1 -3 0 0 0zm-1430 -3l12 1 -3 0 -9 -1 0 0zm1460 1l-3 0 11 -1 -8 1 0 0zm30 -2l-6 0 12 -1 -6 1 0 0zm-1517 -1l11 1 -5 0 -6 -1 0 0zm-27 -2l10 1 -7 -1 -3 0 0 0zm1574 0l-7 1 9 -1 -2 0 0 0zm-1603 -2l3 0 -1 0 -2 0zm1632 0l0 0 3 0 -3 0zm30 -3l-2 0 6 0 -4 0zm-1694 0l7 0 -3 0 -4 0zm-27 -3l5 1 -3 0 -2 -1 0 0zm1751 1l-3 0 5 -1 -2 1 0 0zm-2349 -75c-4507,-709 -7959,-4614 -7959,-9319 0,-5206 4227,-9433 9433,-9433 5207,0 9434,4227 9434,9433 0,4705 -3452,8610 -7960,9319l0 -6592 2198 0 419 -2727 -2617 0 0 -1769c0,-746 366,-1473 1538,-1473l1189 0 0 -2322c0,0 -1079,-184 -2112,-184 -2154,0 -3563,1306 -3563,3670l0 2078 -2395 0 0 2727 2395 0 0 6592 0 0z"/>
  </g>
 </g>
</svg>
